<?xml version="1.0" standalone="no"?>
<!DOCTYPE svg PUBLIC "-//W3C//DTD SVG 20010904//EN"
 "http://www.w3.org/TR/2001/REC-SVG-20010904/DTD/svg10.dtd">
<svg version="1.0" xmlns="http://www.w3.org/2000/svg"
 width="500.000000pt" height="500.000000pt" viewBox="0 0 500.000000 500.000000"
 preserveAspectRatio="xMidYMid meet">
<metadata>
Created by potrace 1.14, written by Peter Selinger 2001-2017
</metadata>
<g transform="translate(0.000000,500.000000) scale(0.100000,-0.100000)"
fill="#000000" stroke="none">
<path d="M977 4125 c3 -8 9 -12 14 -9 12 7 11 11 -5 17 -10 4 -13 1 -9 -8z"/>
<path d="M4023 4133 c-7 -2 -13 -11 -13 -19 0 -8 -3 -14 -8 -14 -10 0 -35 -41
-29 -47 3 -2 19 16 37 41 17 25 30 46 28 45 -2 0 -9 -3 -15 -6z"/>
<path d="M1017 4109 c7 -7 15 -10 18 -7 3 3 -2 9 -12 12 -14 6 -15 5 -6 -5z"/>
<path d="M1057 4089 c7 -7 15 -10 18 -7 3 3 -2 9 -12 12 -14 6 -15 5 -6 -5z"/>
<path d="M1097 4069 c7 -7 15 -10 18 -7 3 3 -2 9 -12 12 -14 6 -15 5 -6 -5z"/>
<path d="M1137 4049 c7 -7 15 -10 18 -7 3 3 -2 9 -12 12 -14 6 -15 5 -6 -5z"/>
<path d="M1177 4029 c7 -7 15 -10 18 -7 3 3 -2 9 -12 12 -14 6 -15 5 -6 -5z"/>
<path d="M3923 3987 c-18 -28 -45 -65 -60 -81 -14 -16 -20 -27 -12 -24 16 5
125 158 112 158 -4 0 -23 -24 -40 -53z"/>
<path d="M1217 4009 c7 -7 15 -10 18 -7 3 3 -2 9 -12 12 -14 6 -15 5 -6 -5z"/>
<path d="M181 3993 c-1 -17 16 -25 25 -12 4 7 3 9 -4 5 -5 -3 -13 0 -15 6 -4
9 -6 10 -6 1z"/>
<path d="M4815 3990 c-4 -6 -11 -7 -17 -4 -6 4 -9 3 -6 -2 9 -14 -134 -217
-162 -231 -16 -8 -19 -13 -9 -13 9 0 26 8 37 18 21 18 177 242 168 242 -2 0
-8 -5 -11 -10z"/>
<path d="M1251 3960 c0 -8 4 -22 9 -30 12 -18 12 -2 0 25 -6 13 -9 15 -9 5z"/>
<path d="M200 3956 c0 -2 8 -10 18 -17 15 -13 16 -12 3 4 -13 16 -21 21 -21
13z"/>
<path d="M1273 3890 c1 -14 6 -28 11 -31 5 -4 -1 -23 -13 -43 -13 -20 -20 -36
-18 -36 3 0 15 16 27 36 19 30 24 33 39 22 9 -7 7 -3 -6 9 -13 12 -28 33 -33
45 -10 23 -10 23 -7 -2z"/>
<path d="M3795 3880 l-30 -8 27 -1 c15 0 30 4 33 9 3 6 5 9 3 9 -2 -1 -16 -5
-33 -9z"/>
<path d="M1198 3873 c7 -3 16 -2 19 1 4 3 -2 6 -13 5 -11 0 -14 -3 -6 -6z"/>
<path d="M3716 3861 c-4 -5 66 -130 154 -276 l161 -267 -41 -36 c-23 -19 -84
-72 -137 -118 l-96 -83 -148 257 c-82 141 -150 262 -152 267 -3 6 -7 8 -10 5
-3 -3 63 -125 148 -272 l154 -267 -141 -123 -141 -122 7 52 c7 52 25 373 26
447 l0 41 -132 12 c-204 19 -284 35 -442 87 -152 50 -343 165 -400 241 l-19
26 -51 -50 c-101 -99 -234 -172 -417 -230 -89 -28 -185 -51 -219 -50 -8 0 -40
-5 -72 -11 -31 -5 -100 -13 -153 -17 l-97 -7 7 -171 c3 -94 10 -211 15 -261 5
-49 8 -90 6 -92 -3 -3 -267 222 -269 230 -1 3 68 127 153 275 131 228 157 268
170 259 8 -6 6 -2 -4 11 -20 23 -28 28 -24 14 3 -8 -301 -542 -309 -542 -2 0
-52 42 -111 93 -137 119 -212 180 -212 174 0 -5 340 -303 363 -318 7 -5 -271
-627 -342 -768 l-18 -33 -35 43 c-83 102 -218 348 -258 468 l-14 43 142 284
c78 156 142 288 142 293 0 5 -47 50 -105 100 -58 50 -105 88 -105 84 1 -4 24
-27 53 -51 29 -23 74 -62 100 -86 l49 -43 -140 -279 c-160 -319 -139 -306
-192 -117 -49 176 -73 340 -74 513 -1 85 3 167 7 183 4 15 3 27 -2 27 -8 0
-21 -71 -26 -137 -1 -13 -5 -26 -8 -30 -10 -9 -9 -35 2 -29 4 3 11 -52 14
-122 16 -317 151 -727 333 -1005 82 -126 223 -268 310 -314 189 -100 368 -75
499 69 30 34 55 66 55 72 -1 6 -15 -7 -33 -29 -72 -90 -149 -140 -232 -152
-45 -6 -45 -5 -36 18 9 25 168 407 194 469 l15 34 12 -44 c28 -110 85 -282
121 -365 l40 -89 -46 -68 c-249 -363 -719 -423 -1015 -129 -136 135 -221 321
-266 586 -36 205 -29 603 15 918 9 70 14 124 10 120 -11 -12 -50 -300 -57
-426 -10 -159 3 -525 22 -627 76 -419 269 -675 563 -751 93 -23 225 -25 308
-4 175 45 358 181 448 333 10 17 22 32 26 32 3 0 21 -26 38 -58 l32 -57 -32
-60 c-106 -197 -285 -360 -482 -437 -134 -52 -287 -48 -423 12 -25 11 -47 18
-50 15 -9 -9 161 -82 230 -99 38 -9 114 -21 170 -27 301 -32 521 60 627 261
19 36 38 67 41 70 4 3 11 24 15 48 4 23 10 42 13 42 4 -1 20 -17 35 -38 15
-20 59 -72 98 -114 l69 -77 0 -135 0 -135 -36 24 c-30 20 -48 25 -98 24 -34
-1 -72 -4 -86 -9 -22 -6 -23 -8 -7 -15 15 -6 17 -22 17 -111 l0 -104 -165 0
c-181 0 -289 -13 -503 -61 -198 -44 -310 -59 -457 -60 -122 -2 -125 -2 -55 -9
99 -10 267 5 415 36 376 79 357 77 572 78 148 1 203 4 203 13 0 6 12 21 26 32
15 12 23 21 19 21 -5 0 -17 -8 -27 -17 -18 -16 -19 -14 -16 88 l3 104 53 3 52
3 0 -80 c0 -54 -4 -81 -12 -85 -7 -3 1 -4 17 0 17 3 44 13 60 23 l30 17 3 172
c1 95 6 172 10 172 4 0 29 -22 55 -48 l47 -48 0 -192 c0 -191 0 -192 -22 -197
-76 -17 -174 -35 -201 -36 -30 -2 -31 -2 -4 -6 26 -4 27 -6 27 -70 l0 -66 88
6 c154 11 212 41 212 112 l0 36 58 -6 c41 -5 53 -3 42 4 -8 6 -34 11 -57 11
l-43 0 0 105 c0 77 3 105 13 105 9 0 9 2 -1 9 -9 5 -12 24 -10 54 l3 45 68
-49 c39 -29 73 -47 80 -43 7 4 38 27 70 51 33 25 61 43 63 41 2 -2 0 -75 -3
-161 l-6 -157 -36 -1 c-20 0 -56 -4 -81 -9 -36 -7 -27 -8 43 -5 79 4 88 2 83
-12 -12 -30 13 -80 47 -96 41 -19 136 -37 199 -37 l48 0 0 69 c0 58 -3 70 -17
75 -10 2 -55 12 -100 22 l-83 17 0 191 0 192 48 47 c26 26 51 47 56 47 5 0 7
-72 4 -160 -2 -88 -1 -160 4 -160 4 0 8 9 8 19 0 19 52 71 71 71 5 0 9 -31 9
-70 l0 -70 -26 10 c-14 6 -35 15 -46 21 -15 8 -19 8 -13 -1 7 -11 25 -20 73
-34 22 -7 22 -6 22 74 l0 81 53 -3 52 -3 3 -98 3 -98 -23 12 -23 11 23 -21
c12 -12 22 -27 22 -34 0 -9 50 -12 198 -13 210 0 237 -4 546 -69 208 -43 347
-56 486 -45 123 10 186 24 257 57 83 39 93 57 93 180 l0 104 65 29 c36 16 96
47 133 69 70 41 165 120 146 121 -6 0 -18 -8 -25 -17 -30 -36 -281 -183 -314
-183 -3 0 -5 10 -5 23 0 13 -6 31 -12 40 -13 16 -158 80 -166 72 -5 -4 42 -25
99 -44 52 -17 72 -42 60 -74 -12 -31 -62 -70 -119 -92 -24 -10 -41 -20 -38
-22 9 -9 92 34 129 67 l37 32 0 -101 c0 -124 -12 -151 -78 -185 -82 -42 -159
-57 -312 -63 -167 -6 -246 2 -481 52 -247 53 -341 65 -524 65 l-165 0 0 110
c0 72 4 109 11 108 7 -2 10 62 10 197 l-1 200 37 -70 c70 -132 184 -222 333
-262 93 -25 312 -23 436 5 216 48 400 163 509 317 114 161 198 413 219 655 6
78 -3 40 -29 -120 -26 -156 -73 -309 -123 -399 -6 -11 -30 -15 -88 -15 -71 -1
-85 -4 -123 -29 -79 -52 -101 -156 -49 -223 24 -30 26 -28 -66 -75 -77 -40
-193 -69 -277 -69 -229 0 -537 218 -664 471 l-35 68 32 55 c18 31 35 56 38 55
3 0 32 -37 64 -81 72 -98 165 -177 271 -229 104 -51 179 -69 286 -69 374 0
637 280 725 773 9 50 20 184 25 297 4 113 9 210 10 215 8 45 -27 338 -72 599
-33 191 -32 195 18 196 12 0 24 4 27 9 8 12 -74 -7 -94 -22 -46 -36 -220 -189
-220 -194 0 -4 12 4 27 18 33 29 38 34 98 84 27 22 57 49 67 59 23 25 29 18
39 -41 18 -112 6 -312 -32 -508 -21 -111 -78 -315 -88 -315 -3 0 -68 124 -144
276 -106 212 -135 279 -125 285 7 5 8 9 3 9 -37 0 -24 -34 116 -313 l147 -293
-38 -92 c-22 -51 -60 -132 -85 -180 -52 -98 -169 -267 -185 -267 -8 0 -320
660 -360 761 -8 19 11 39 161 169 153 132 169 149 156 163 -19 23 -307 503
-307 513 0 4 8 10 18 12 13 4 12 5 -5 6 -12 0 -24 -3 -27 -8z m875 -789 c16
-207 7 -502 -20 -656 -61 -345 -205 -578 -426 -687 -289 -143 -618 -55 -830
221 -68 89 -68 90 -39 157 15 32 30 69 35 82 9 23 10 23 38 -15 42 -58 117
-123 169 -147 39 -18 65 -22 152 -22 100 0 108 2 180 36 234 114 447 420 579
834 43 132 85 324 95 428 3 31 9 83 13 115 l6 57 18 -125 c10 -69 23 -194 30
-278z m-2646 66 c31 -59 31 -68 0 -68 l-25 0 0 -107 1 -108 32 35 c17 20 57
62 87 96 66 72 58 60 -44 -69 l-78 -98 44 -47 c23 -26 50 -46 58 -45 29 4 43
-6 30 -22 -9 -11 -7 -21 14 -48 23 -29 24 -36 12 -46 -12 -10 -19 -6 -38 19
-14 20 -29 30 -40 27 -23 -7 -44 18 -23 27 13 5 10 13 -17 49 l-33 44 -5 -100
c-3 -68 -9 -102 -17 -105 -10 -3 -13 22 -13 104 l0 107 -34 -44 c-23 -31 -31
-48 -24 -56 14 -17 2 -32 -21 -26 -13 3 -25 -5 -41 -27 -18 -25 -25 -29 -36
-19 -12 10 -10 17 12 46 20 26 23 37 14 48 -13 16 2 28 28 22 11 -3 32 12 60
44 l44 48 -83 103 c-106 133 -116 148 -43 68 32 -36 74 -81 91 -100 l32 -35 1
108 0 107 -30 0 -30 0 36 72 c39 78 37 78 79 -4z m1159 -225 c-4 -106 -5 -193
-2 -193 5 0 58 77 151 220 30 47 69 99 87 115 l31 30 -27 -48 c-15 -27 -46
-74 -70 -105 -79 -102 -144 -192 -140 -192 3 0 16 5 30 11 50 23 106 -19 106
-81 0 -20 -2 -19 -26 9 -29 35 -76 42 -110 17 -18 -14 -18 -16 14 -61 18 -26
31 -49 29 -51 -2 -2 -19 18 -38 44 l-34 47 -6 -65 -6 -65 -2 65 c-2 72 5 73
-59 -6 l-24 -29 16 28 c9 15 24 39 33 53 16 25 16 27 -2 40 -33 25 -80 17
-109 -17 -24 -28 -26 -29 -26 -9 0 62 56 104 106 81 14 -6 27 -11 30 -11 7 0
-51 81 -122 170 -52 66 -104 149 -104 166 0 16 49 -48 126 -164 40 -61 88
-131 105 -155 l32 -42 -6 167 c-3 92 -3 193 0 225 6 53 7 56 15 28 5 -16 6
-117 2 -222z m-585 -25 c8 -46 17 -89 21 -96 5 -9 24 13 59 68 29 45 54 80 56
78 2 -2 -5 -44 -15 -93 -11 -50 -19 -93 -20 -97 0 -4 36 18 79 48 44 29 82 54
86 54 3 0 -19 -36 -49 -81 -31 -44 -56 -82 -56 -83 0 -2 39 5 88 15 48 10 93
18 101 19 8 0 -26 -26 -75 -57 l-89 -58 104 -19 c115 -21 114 -26 -12 -46 -42
-7 -77 -16 -77 -21 0 -4 34 -29 75 -54 41 -26 77 -50 80 -54 2 -4 -33 0 -78
10 -128 28 -126 30 -63 -61 31 -44 56 -82 56 -85 0 -4 -36 19 -81 50 -44 32
-82 55 -85 52 -3 -2 4 -45 16 -96 11 -50 20 -94 20 -98 0 -5 -27 32 -59 81
l-59 88 -11 -53 c-7 -30 -15 -73 -18 -96 -3 -24 -9 -43 -12 -43 -4 0 -13 35
-21 78 -21 125 -19 124 -80 28 -30 -46 -56 -84 -57 -82 -2 2 6 45 16 97 11 52
18 96 16 98 -2 2 -40 -22 -84 -52 -45 -31 -81 -53 -81 -50 0 3 25 41 55 84 63
90 65 88 -62 60 -45 -9 -80 -14 -78 -11 3 4 38 29 80 56 41 27 75 52 75 55 0
3 -35 12 -77 19 -126 20 -127 25 -12 46 l104 19 -90 57 c-49 32 -83 58 -75 58
8 -1 54 -9 102 -19 57 -12 85 -14 81 -7 -4 6 -28 44 -55 84 -27 39 -46 72 -42
72 3 0 42 -25 85 -55 44 -31 79 -52 79 -48 -1 5 -9 48 -20 98 -10 49 -17 91
-16 93 2 1 27 -34 56 -79 61 -92 60 -92 81 34 7 43 16 77 19 77 4 0 12 -37 19
-82z m1117 -861 c5 -16 1 -17 -33 -12 -69 12 -143 53 -196 108 -85 87 -86 91
-50 205 18 53 37 117 43 142 6 25 13 52 16 60 4 12 194 -423 220 -503z m-1596
297 c112 -31 149 -65 233 -214 32 -57 104 -129 137 -136 14 -3 37 -10 53 -16
29 -11 94 1 148 28 40 20 88 74 127 144 74 135 126 175 267 205 106 22 117 18
47 -18 -101 -52 -175 -135 -245 -273 -14 -27 -39 -64 -55 -81 l-29 -32 41 -6
c145 -21 173 -39 126 -78 -36 -31 -84 -42 -151 -34 l-49 6 0 -33 c0 -48 -23
-114 -58 -170 -17 -27 -34 -68 -38 -93 -10 -67 -32 -88 -94 -88 -62 0 -84 21
-94 88 -4 25 -21 66 -38 93 -35 56 -58 122 -58 170 l0 32 -59 -5 c-67 -6 -119
8 -150 41 -30 32 -14 43 92 64 82 16 84 18 63 33 -12 9 -44 58 -71 109 -63
118 -143 206 -232 254 l-68 37 50 -6 c28 -3 75 -13 105 -21z m1040 -797 l0
-244 -55 5 c-70 6 -116 -3 -143 -29 l-22 -20 0 136 0 136 81 92 c45 51 93 109
108 129 14 21 27 38 29 38 1 0 2 -109 2 -243z m1353 234 c17 -6 14 -13 -23
-69 -39 -58 -155 -182 -170 -182 -4 0 -15 15 -25 33 -25 47 -17 128 16 164 47
51 145 77 202 54z m-2315 -524 c13 -12 22 -32 22 -49 0 -24 -7 -32 -35 -44
-19 -7 -37 -14 -40 -14 -3 0 -5 31 -5 70 0 76 8 81 58 37z"/>
<path d="M2391 1874 c23 -22 30 -24 48 -15 11 7 21 16 21 20 0 10 -35 21 -70
21 l-25 0 26 -26z"/>
<path d="M2558 1893 c-24 -6 -23 -20 1 -33 16 -8 25 -5 48 15 l28 24 -30 0
c-16 -1 -38 -3 -47 -6z"/>
<path d="M2183 1873 c-25 -10 -12 -23 22 -23 36 0 47 13 19 24 -18 7 -23 7
-41 -1z"/>
<path d="M2767 1873 c-28 -7 -9 -23 29 -23 35 0 46 13 18 24 -17 6 -19 6 -47
-1z"/>
<path d="M2347 1823 c-13 -13 -7 -31 23 -63 49 -52 71 -16 24 39 -26 32 -35
36 -47 24z"/>
<path d="M2607 1802 c-15 -16 -27 -38 -27 -50 0 -19 3 -20 23 -11 13 6 31 23
40 39 14 23 14 30 4 39 -10 8 -20 4 -40 -17z"/>
<path d="M2450 1495 c0 -14 5 -25 10 -25 6 0 10 11 10 25 0 14 -4 25 -10 25
-5 0 -10 -11 -10 -25z"/>
<path d="M2530 1495 c0 -14 5 -25 10 -25 6 0 10 11 10 25 0 14 -4 25 -10 25
-5 0 -10 -11 -10 -25z"/>
<path d="M310 3796 c0 -2 8 -10 18 -17 15 -13 16 -12 3 4 -13 16 -21 21 -21
13z"/>
<path d="M1395 3770 c10 -11 20 -20 23 -20 3 0 -3 9 -13 20 -10 11 -20 20 -23
20 -3 0 3 -9 13 -20z"/>
<path d="M3609 3773 c-13 -16 -12 -17 4 -4 16 13 21 21 13 21 -2 0 -10 -8 -17
-17z"/>
<path d="M1224 3738 c-4 -7 -14 -24 -22 -38 -14 -24 -13 -24 3 -5 20 24 37 55
31 55 -3 0 -8 -6 -12 -12z"/>
<path d="M428 3733 c7 -3 16 -2 19 1 4 3 -2 6 -13 5 -11 0 -14 -3 -6 -6z"/>
<path d="M480 3727 c0 -2 15 -14 33 -27 l32 -23 -24 26 c-21 23 -41 35 -41 24z"/>
<path d="M1475 3700 c10 -11 20 -20 23 -20 3 0 -3 9 -13 20 -10 11 -20 20 -23
20 -3 0 3 -9 13 -20z"/>
<path d="M3519 3693 c-13 -16 -12 -17 4 -4 9 7 17 15 17 17 0 8 -8 3 -21 -13z"/>
<path d="M550 3675 c0 -5 30 -33 98 -90 57 -48 34 -20 -33 39 -36 31 -65 55
-65 51z"/>
<path d="M1136 3593 c-6 -14 -5 -15 5 -6 7 7 10 15 7 18 -3 3 -9 -2 -12 -12z"/>
<path d="M1630 3566 c0 -2 8 -10 18 -17 15 -13 16 -12 3 4 -13 16 -21 21 -21
13z"/>
<path d="M4200 3458 c-36 -34 -49 -48 -30 -33 58 46 102 86 99 90 -2 1 -33
-24 -69 -57z"/>
<path d="M1720 3486 c0 -2 8 -10 18 -17 15 -13 16 -12 3 4 -13 16 -21 21 -21
13z"/>
<path d="M1050 3450 c-6 -11 -8 -20 -6 -20 3 0 10 9 16 20 6 11 8 20 6 20 -3
0 -10 -9 -16 -20z"/>
<path d="M4621 2864 c0 -11 3 -14 6 -6 3 7 2 16 -1 19 -3 4 -6 -2 -5 -13z"/>
<path d="M4626 2825 c4 -8 8 -15 10 -15 2 0 4 7 4 15 0 8 -4 15 -10 15 -5 0
-7 -7 -4 -15z"/>
<path d="M4633 2725 c0 -22 2 -30 4 -17 2 12 2 30 0 40 -3 9 -5 -1 -4 -23z"/>
<path d="M4633 2525 c0 -22 2 -30 4 -17 2 12 2 30 0 40 -3 9 -5 -1 -4 -23z"/>
<path d="M4627 2457 c-4 -10 -7 -33 -6 -50 l1 -32 9 33 c12 40 8 79 -4 49z"/>
<path d="M558 1774 c-26 -8 -23 -18 26 -92 55 -84 158 -187 180 -179 23 9 49
68 49 112 0 92 -72 158 -177 161 -33 2 -69 0 -78 -2z m152 -26 c65 -33 93 -79
88 -146 -3 -36 -11 -60 -25 -73 l-20 -20 -64 64 c-76 77 -78 79 -113 139 -25
42 -25 47 -9 51 45 12 102 6 143 -15z"/>
<path d="M4822 1632 c-35 -76 -61 -152 -52 -152 8 0 82 191 76 197 -1 2 -12
-18 -24 -45z"/>
<path d="M196 1570 c3 -14 11 -32 16 -40 6 -10 7 -7 2 10 -3 14 -11 32 -16 40
-6 10 -7 7 -2 -10z"/>
<path d="M221 1494 c0 -11 3 -14 6 -6 3 7 2 16 -1 19 -3 4 -6 -2 -5 -13z"/>
<path d="M36 1454 c80 -71 324 -205 332 -183 2 5 20 -5 40 -22 37 -33 106 -69
132 -68 8 0 -7 8 -33 19 -59 23 -115 64 -129 96 -16 34 8 57 88 85 36 13 70
29 76 36 6 7 -16 2 -48 -12 -122 -53 -129 -58 -132 -92 -2 -18 -5 -33 -8 -33
-32 0 -283 147 -313 183 -7 9 -18 17 -24 17 -5 0 3 -12 19 -26z"/>
<path d="M1600 1171 c0 -70 6 -81 46 -81 23 0 37 6 44 19 13 25 13 111 0 111
-5 0 -10 -22 -10 -50 0 -37 -4 -52 -17 -58 -32 -17 -43 -3 -43 54 0 30 -4 54
-10 54 -5 0 -10 -22 -10 -49z"/>
<path d="M1760 1155 l0 -65 45 0 c25 0 45 5 45 10 0 6 -16 10 -35 10 -28 0
-35 4 -35 20 0 16 7 20 36 20 21 0 33 4 29 10 -3 6 -19 10 -36 10 -21 0 -29 5
-29 18 0 15 6 17 35 14 21 -3 35 0 35 7 0 6 -19 11 -45 11 l-45 0 0 -65z"/>
<path d="M3147 1213 c-4 -3 -7 -33 -7 -65 l0 -58 48 0 c57 0 82 20 82 68 0 21
-7 36 -22 46 -22 16 -89 22 -101 9z m91 -25 c14 -14 16 -47 4 -65 -4 -7 -22
-16 -40 -19 l-32 -6 0 51 c0 49 1 51 28 51 15 0 33 -5 40 -12z"/>
<path d="M3340 1167 c0 -62 19 -87 66 -87 42 0 54 17 54 77 0 69 -18 69 -22 1
-3 -47 -6 -53 -26 -56 -37 -5 -52 15 -52 69 0 27 -4 49 -10 49 -5 0 -10 -24
-10 -53z"/>
<path d="M1452 1190 c-31 -29 -38 -65 -18 -95 14 -21 23 -25 59 -23 l43 3 2
49 c3 77 -39 110 -86 66z m66 -42 c3 -33 0 -38 -18 -38 -12 0 -18 -4 -15 -10
9 -14 -19 -12 -33 2 -27 27 4 91 41 86 17 -2 23 -11 25 -40z"/>
<path d="M1350 1115 c0 -37 4 -65 10 -65 6 0 10 28 10 65 0 37 -4 65 -10 65
-6 0 -10 -28 -10 -65z"/>
<path d="M460 1105 c0 -37 4 -65 10 -65 6 0 10 9 10 20 0 32 18 23 40 -20 11
-22 25 -40 30 -40 6 0 4 13 -5 30 -12 23 -13 34 -4 49 17 27 6 47 -41 71 l-40
20 0 -65z m70 -2 c0 -25 -45 -11 -48 15 -3 20 -1 21 22 11 14 -7 26 -19 26
-26z"/>
<path d="M1220 1092 l0 -70 36 8 c46 11 59 24 17 18 l-33 -5 0 53 c0 29 -4 56
-10 59 -6 4 -10 -20 -10 -63z"/>
<path d="M3737 1153 c-4 -3 -7 -33 -7 -65 0 -47 3 -58 16 -58 13 0 15 8 12 40
-2 22 -1 40 2 40 3 0 18 -20 33 -44 50 -79 57 -78 57 3 0 79 -17 98 -22 24
l-3 -48 -27 46 c-30 50 -51 72 -61 62z"/>
<path d="M4463 1133 l-43 -15 0 -64 c0 -36 4 -64 10 -64 6 0 10 13 10 29 0 35
26 48 50 26 9 -8 25 -15 35 -15 17 0 17 2 -4 23 -19 22 -20 25 -6 37 17 14 17
52 0 56 -5 1 -29 -4 -52 -13z m47 -22 c0 -12 -40 -41 -57 -41 -20 0 -15 38 5
43 31 8 52 7 52 -2z"/>
<path d="M1077 1124 c-4 -4 -7 -36 -7 -71 l0 -63 28 6 c56 14 62 21 59 77 -2
52 -2 52 -37 55 -20 2 -39 0 -43 -4z m59 -32 c-3 -5 -15 -12 -26 -15 -15 -4
-20 0 -20 13 0 10 8 20 18 23 20 4 37 -7 28 -21z m2 -48 c-2 -9 -13 -20 -25
-25 -20 -7 -23 -5 -23 16 0 20 5 25 26 25 18 0 25 -5 22 -16z"/>
<path d="M3930 1056 c0 -36 5 -68 10 -71 6 -4 10 20 10 64 0 41 -4 71 -10 71
-6 0 -10 -28 -10 -64z"/>
<path d="M610 1045 c0 -61 1 -65 23 -65 12 0 32 -3 45 -6 13 -4 22 -2 22 5 0
6 -9 11 -19 11 -33 0 -51 11 -51 32 0 17 5 19 30 13 18 -4 30 -3 30 4 0 5 -12
11 -27 13 -17 2 -29 10 -31 21 -3 14 4 17 35 17 28 0 34 3 23 10 -8 5 -30 10
-47 10 l-33 0 0 -65z"/>
<path d="M988 1053 c-3 -54 -5 -58 -28 -58 -23 0 -25 4 -28 53 -4 68 -22 68
-22 -1 0 -57 12 -77 45 -77 36 0 55 31 55 88 0 71 -18 66 -22 -5z"/>
<path d="M760 1035 c0 -37 4 -65 10 -65 6 0 10 11 10 25 0 21 5 25 30 25 25 0
50 21 50 44 0 16 -36 36 -66 36 l-34 0 0 -65z m75 25 c0 -9 -11 -16 -27 -18
-23 -3 -28 1 -28 18 0 17 5 21 28 18 16 -2 27 -9 27 -18z"/>
<path d="M4040 1080 c-25 -25 -26 -64 0 -90 43 -43 120 -34 120 15 0 21 -5 25
-30 25 -16 0 -30 -4 -30 -10 0 -5 9 -10 20 -10 23 0 27 -18 5 -26 -24 -10 -64
5 -76 27 -27 52 38 93 83 52 10 -9 21 -13 26 -9 12 13 -38 46 -69 46 -16 0
-38 -9 -49 -20z"/>
<path d="M4237 1093 c-10 -9 -9 -121 1 -126 15 -7 112 5 112 15 0 7 -17 8 -45
5 -40 -6 -45 -4 -45 12 0 21 19 31 56 31 13 0 24 5 24 11 0 7 -14 8 -40 4 -36
-6 -40 -5 -40 14 0 17 6 21 34 21 19 0 38 5 41 10 7 11 -87 14 -98 3z"/>
<path d="M370 1059 c0 -39 93 -94 200 -118 96 -21 100 -22 100 -11 0 5 -11 10
-25 10 -84 0 -240 65 -262 110 -8 15 -13 19 -13 9z"/>
<path d="M3055 1004 c-6 -8 -32 -19 -60 -23 l-50 -9 41 -1 c39 -1 97 29 84 43
-3 3 -10 -2 -15 -10z"/>
</g>
</svg>
